PathFileType	4	(X/Y/Z)	C:/Users/beibeiliu/ov580/test_trc\sequence.26_training_dense_left.trc
DataRate	CameraRate	NumFrames	NumMarkers	Units	OrigDataRate	OrigDataStartFrame	OrigNumFrames
120	120	7	19	mm	120	50	74
Frame#	Time	ThumbCMC			ThumbMCP			ThumbIP			ThumbTip			IndexMCP			IndexPIP			IndexTip			MiddleMCP			MiddlePIP			MiddleTip			RingMCP			RingPIP			RingTip			PinkyMCP			PinkyPIP			PinkyTip			BackHand1			BackHand2			BackHand3	
		X0	Y0	Z0	X1	Y1	Z1	X2	Y2	Z2	X3	Y3	Z3	X4	Y4	Z4	X5	Y5	Z5	X6	Y6	Z6	X7	Y7	Z7	X8	Y8	Z8	X9	Y9	Z9	X10	Y10	Z10	X11	Y11	Z11	X12	Y12	Z12	X13	Y13	Z13	X14	Y14	Z14	X15	Y15	Z15	X16	Y16	Z16	X17	Y17	Z17	X18	Y18	Z18	
49	0.408333	-181.791	47.2692	12.9527	-168.46	68.8991	9.27972	-155.223	86.7284	-0.491188	-137.221	100.547	-6.9084	-131.568	48.5685	-34.13	-113.441	68.3487	-36.7711	-104.394	88.1444	-24.8786	-116.198	38.1259	-27.2135	-96.1922	59.8883	-26.9877	-91.8364	82.7294	-2.80404	-105.969	28.3571	-12.2892	-90.189	52.2823	-12.6595	-87.9689	72.7755	2.14426	-107.196	18.3743	5.71763	-90.6528	36.5938	0.208641	-82.8657	59.8601	7.35944	-143.265	3.15908	9.23621	-163.382	-0.723132	25.9095	-169.912	14.0518	5.13809	
50	0.416667	-184.464	41.1139	9.90034	-174.091	65.9709	-6.14761	-164.074	80.835	-18.8808	-152.512	96.8711	-31.7009	-146.205	39.07	-46.371	-124.574	57.5768	-57.9375	-119.543	81.6431	-55.2698	-124.068	32.5454	-41.8828	-107.141	55.5373	-51.916	-102.006	81.0353	-38.0358	-113.453	26.3618	-28.1057	-96.6355	50.7212	-37.1843	-98.0419	76.6284	-28.5652	-104.102	22.5448	-11.576	-91.6404	37.2867	-20.904	-92.6078	60.5421	-24.3745	-140.966	4.21273	6.0835	-153.672	-1.89692	24.1601	-167.61	9.27293	1.92642	
51	0.425	-187.56	38.1868	3.93275	-183.218	61.1717	-16.8457	-173.236	71.1176	-35.0061	-163.206	84.0737	-55.0784	-155.467	24.3247	-57.0856	-143.074	41.2512	-74.7026	-135.136	68.0064	-77.2782	-136.607	20.7235	-53.9752	-126.421	38.3885	-73.3034	-118.144	73.5392	-65.9408	-124.34	19.0087	-43.115	-113.762	39.0635	-60.5856	-109.861	62.9025	-58.4891	-110.238	17.421	-22.6771	-103.688	32.9528	-43.4793	-107.99	53.301	-49.5124	-142.782	4.57381	-1.0716	-149.882	1.88549	23.4499	-171.555	5.36629	-1.05884	
52	0.433333	-189.629	32.0697	-1.48111	-188.283	51.3239	-22.2965	-184.806	60.8335	-51.0917	-175.471	69.046	-66.9591	-166.861	10.2891	-58.3882	-157.713	22.8463	-80.9709	-151.595	49.0446	-89.7568	-146.632	7.33363	-62.3297	-142.071	21.6347	-83.3473	-139.008	53.7271	-87.2882	-131.754	8.49519	-46.3993	-128.187	22.7208	-71.3267	-125.443	48.3318	-77.6339	-119.965	11.66	-32.7943	-116.648	21.7585	-55.5967	-116.328	41.065	-69.9538	-147.928	2.73795	-5.22138	-152.585	1.75853	23.8513	-176.391	1.56243	-2.38583	
53	0.441667	-199.666	33.239	0.385722	-197.09	46.6356	-30.1668	-195.18	52.9436	-53.6786	-186.717	57.0811	-70.109	-182.702	-0.299616	-55.3693	-175.332	8.59767	-81.9474	-171.178	28.4689	-94.9313	-166.902	-4.59347	-61.4683	-158.002	7.30026	-86.678	-152.051	35.0486	-94.6627	-151.192	-3.10628	-50.1731	-143.181	5.7452	-72.8024	-143.434	25.9019	-86.1204	-136.502	1.63168	-35.0976	-133.933	6.30206	-58.6797	-133.052	18.7203	-76.1217	-155.86	-2.75572	0.787529	-161.617	1.69316	22.5639	-187.262	-0.0799792	0.958833	
54	0.45	-209.393	31.6563	-1.06955	-205.874	41.8948	-26.74	-206.577	43.8429	-52.225	-199.535	43.9501	-70.9652	-202.054	-10.0254	-48.5656	-195.727	-6.08305	-78.5154	-190.337	10.1387	-92.8566	-183.421	-18.3681	-51.087	-180.256	-10.9199	-81.1531	-172.741	13.7929	-95.6605	-166.534	-16.3456	-42.3474	-161.839	-12.1518	-71.0712	-162.909	5.8665	-85.3009	-153.701	-11.9521	-34.084	-152.774	-11.0265	-55.3783	-154.02	0.536487	-74.0435	-171.244	-8.14069	3.52236	-171.483	3.23549	27.2686	-200.132	2.07798	8.47781	
55	0.458333	-216.174	34.105	4.64499	-216.632	40.0608	-26.7119	-216.051	36.914	-47.8398	-215.947	36.8348	-71.7379	-223.945	-13.5355	-35.8907	-220.487	-16.0447	-65.2529	-212.659	-3.09538	-86.1903	-211.535	-25.3745	-40.001	-209.438	-25.6473	-71.0769	-195.569	-8.49646	-88.107	-194.477	-25.2086	-31.2192	-190.438	-27.8515	-63.7822	-187.259	-12.6996	-79.621	-175.441	-24.4505	-24.6646	-179.251	-26.6786	-45.2677	-175.826	-16.3758	-70.4737	-191.292	-8.78479	10.3435	-189.455	1.90448	31.063	-214.154	4.16715	19.9858	
